<svg id="visual" viewBox="0 0 2500 300" width="2500" height="300" xmlns="http://www.w3.org/2000/svg" xmlns:xlink="http://www.w3.org/1999/xlink" version="1.1"><rect x="0" y="0" width="2500" height="300" fill="#afdfdb"></rect><path d="M0 129L104.2 118.5C208.3 108 416.7 87 625 112.3C833.3 137.7 1041.7 209.3 1250 225.7C1458.3 242 1666.7 203 1875 164.5C2083.3 126 2291.7 88 2395.8 69L2500 50L2500 301L2395.8 301C2291.7 301 2083.3 301 1875 301C1666.7 301 1458.3 301 1250 301C1041.7 301 833.3 301 625 301C416.7 301 208.3 301 104.2 301L0 301Z" fill="#d0c1ed" stroke-linecap="round" stroke-linejoin="miter"></path></svg>