<svg id="visual" viewBox="0 0 2500 300" width="2500" height="300" xmlns="http://www.w3.org/2000/svg" xmlns:xlink="http://www.w3.org/1999/xlink" version="1.1"><path d="M0 124L104.2 107.3C208.3 90.7 416.7 57.3 625 75.7C833.3 94 1041.7 164 1250 205.5C1458.3 247 1666.7 260 1875 222.7C2083.3 185.3 2291.7 97.7 2395.8 53.8L2500 10L2500 301L2395.8 301C2291.7 301 2083.3 301 1875 301C1666.7 301 1458.3 301 1250 301C1041.7 301 833.3 301 625 301C416.7 301 208.3 301 104.2 301L0 301Z" fill="#F2F2F2" stroke-linecap="round" stroke-linejoin="miter"></path></svg>